<svg xmlns="http://www.w3.org/2000/svg" xmlns:xlink="http://www.w3.org/1999/xlink" viewBox="0,0,256,256" width="35px" height="35px" fill-rule="nonzero"><g fill="none" fill-rule="nonzero" stroke="none" stroke-width="none" stroke-linecap="none" stroke-linejoin="none" stroke-miterlimit="10" stroke-dasharray="" stroke-dashoffset="0" font-family="none" font-weight="none" font-size="none" text-anchor="none" style="mix-blend-mode: normal"><g transform="scale(5.33333,5.33333)"><path d="M37,17h-10l-4.9,-4.1c-0.7,-0.6 -1.7,-0.9 -2.6,-0.9h-7.5c-1.6,0 -3,1.4 -3,3.1v12v6.9v7c0,1.7 1.4,3.1 3.1,3.1h31.9c1.7,0 3.1,-1.4 3.1,-3.1v-20.9c0,-1.7 -1.4,-3.1 -3.1,-3.1h-1.1z" fill="#ffd282" stroke="none" stroke-width="1" stroke-linecap="butt" stroke-linejoin="miter"></path><path d="M5.5,29.8v6.7c0,1.7 1.3,3 3,3h31c1.7,0 3,-1.3 3,-3v-20c0,-1.7 -1.3,-3 -3,-3h-1.1" fill="none" stroke="#18193f" stroke-width="3" stroke-linecap="round" stroke-linejoin="round"></path><path d="M32.7,13.5h-9.2l-4.9,-4.1c-0.7,-0.6 -1.6,-0.9 -2.6,-0.9h-7.5c-1.7,0 -3,1.3 -3,3v11.7" fill="none" stroke="#18193f" stroke-width="3" stroke-linecap="round" stroke-linejoin="round"></path><path d="M6,16.5h12.1c0.9,0 1.8,-0.3 2.6,-0.9l2.3,-1.9" fill="none" stroke="#18193f" stroke-width="3" stroke-linecap="round" stroke-linejoin="round"></path></g></g></svg>